G04 #@! TF.GenerationSoftware,KiCad,Pcbnew,(5.0.2)-1*
G04 #@! TF.CreationDate,2019-06-26T13:49:51+02:00*
G04 #@! TF.ProjectId,2.0,322e302e-6b69-4636-9164-5f7063625858,rev?*
G04 #@! TF.SameCoordinates,Original*
G04 #@! TF.FileFunction,Legend,Top*
G04 #@! TF.FilePolarity,Positive*
%FSLAX46Y46*%
G04 Gerber Fmt 4.6, Leading zero omitted, Abs format (unit mm)*
G04 Created by KiCad (PCBNEW (5.0.2)-1) date 06/26/19 13:49:51*
%MOMM*%
%LPD*%
G01*
G04 APERTURE LIST*
%ADD10C,0.200000*%
%ADD11C,0.120000*%
%ADD12C,0.150000*%
G04 APERTURE END LIST*
D10*
X118964285Y-103828571D02*
X118630952Y-103828571D01*
X118630952Y-104352380D02*
X118630952Y-103352380D01*
X119107142Y-103352380D01*
X119488095Y-104352380D02*
X119488095Y-103685714D01*
X119488095Y-103352380D02*
X119440476Y-103400000D01*
X119488095Y-103447619D01*
X119535714Y-103400000D01*
X119488095Y-103352380D01*
X119488095Y-103447619D01*
X120107142Y-104352380D02*
X120011904Y-104304761D01*
X119964285Y-104209523D01*
X119964285Y-103352380D01*
X120345238Y-103685714D02*
X120726190Y-103685714D01*
X120488095Y-103352380D02*
X120488095Y-104209523D01*
X120535714Y-104304761D01*
X120630952Y-104352380D01*
X120726190Y-104352380D01*
X121059523Y-104352380D02*
X121059523Y-103685714D01*
X121059523Y-103876190D02*
X121107142Y-103780952D01*
X121154761Y-103733333D01*
X121250000Y-103685714D01*
X121345238Y-103685714D01*
X121821428Y-104352380D02*
X121726190Y-104304761D01*
X121678571Y-104257142D01*
X121630952Y-104161904D01*
X121630952Y-103876190D01*
X121678571Y-103780952D01*
X121726190Y-103733333D01*
X121821428Y-103685714D01*
X121964285Y-103685714D01*
X122059523Y-103733333D01*
X122107142Y-103780952D01*
X122154761Y-103876190D01*
X122154761Y-104161904D01*
X122107142Y-104257142D01*
X122059523Y-104304761D01*
X121964285Y-104352380D01*
X121821428Y-104352380D01*
X123345238Y-104352380D02*
X123345238Y-103352380D01*
X123726190Y-103352380D01*
X123821428Y-103400000D01*
X123869047Y-103447619D01*
X123916666Y-103542857D01*
X123916666Y-103685714D01*
X123869047Y-103780952D01*
X123821428Y-103828571D01*
X123726190Y-103876190D01*
X123345238Y-103876190D01*
X124773809Y-104352380D02*
X124773809Y-103828571D01*
X124726190Y-103733333D01*
X124630952Y-103685714D01*
X124440476Y-103685714D01*
X124345238Y-103733333D01*
X124773809Y-104304761D02*
X124678571Y-104352380D01*
X124440476Y-104352380D01*
X124345238Y-104304761D01*
X124297619Y-104209523D01*
X124297619Y-104114285D01*
X124345238Y-104019047D01*
X124440476Y-103971428D01*
X124678571Y-103971428D01*
X124773809Y-103923809D01*
X125202380Y-104304761D02*
X125297619Y-104352380D01*
X125488095Y-104352380D01*
X125583333Y-104304761D01*
X125630952Y-104209523D01*
X125630952Y-104161904D01*
X125583333Y-104066666D01*
X125488095Y-104019047D01*
X125345238Y-104019047D01*
X125250000Y-103971428D01*
X125202380Y-103876190D01*
X125202380Y-103828571D01*
X125250000Y-103733333D01*
X125345238Y-103685714D01*
X125488095Y-103685714D01*
X125583333Y-103733333D01*
X126202380Y-104352380D02*
X126107142Y-104304761D01*
X126059523Y-104257142D01*
X126011904Y-104161904D01*
X126011904Y-103876190D01*
X126059523Y-103780952D01*
X126107142Y-103733333D01*
X126202380Y-103685714D01*
X126345238Y-103685714D01*
X126440476Y-103733333D01*
X126488095Y-103780952D01*
X126535714Y-103876190D01*
X126535714Y-104161904D01*
X126488095Y-104257142D01*
X126440476Y-104304761D01*
X126345238Y-104352380D01*
X126202380Y-104352380D01*
X128059523Y-103828571D02*
X128202380Y-103876190D01*
X128250000Y-103923809D01*
X128297619Y-104019047D01*
X128297619Y-104161904D01*
X128250000Y-104257142D01*
X128202380Y-104304761D01*
X128107142Y-104352380D01*
X127726190Y-104352380D01*
X127726190Y-103352380D01*
X128059523Y-103352380D01*
X128154761Y-103400000D01*
X128202380Y-103447619D01*
X128250000Y-103542857D01*
X128250000Y-103638095D01*
X128202380Y-103733333D01*
X128154761Y-103780952D01*
X128059523Y-103828571D01*
X127726190Y-103828571D01*
X129154761Y-104352380D02*
X129154761Y-103828571D01*
X129107142Y-103733333D01*
X129011904Y-103685714D01*
X128821428Y-103685714D01*
X128726190Y-103733333D01*
X129154761Y-104304761D02*
X129059523Y-104352380D01*
X128821428Y-104352380D01*
X128726190Y-104304761D01*
X128678571Y-104209523D01*
X128678571Y-104114285D01*
X128726190Y-104019047D01*
X128821428Y-103971428D01*
X129059523Y-103971428D01*
X129154761Y-103923809D01*
X129630952Y-103685714D02*
X129630952Y-104352380D01*
X129630952Y-103780952D02*
X129678571Y-103733333D01*
X129773809Y-103685714D01*
X129916666Y-103685714D01*
X130011904Y-103733333D01*
X130059523Y-103828571D01*
X130059523Y-104352380D01*
X130964285Y-104352380D02*
X130964285Y-103352380D01*
X130964285Y-104304761D02*
X130869047Y-104352380D01*
X130678571Y-104352380D01*
X130583333Y-104304761D01*
X130535714Y-104257142D01*
X130488095Y-104161904D01*
X130488095Y-103876190D01*
X130535714Y-103780952D01*
X130583333Y-103733333D01*
X130678571Y-103685714D01*
X130869047Y-103685714D01*
X130964285Y-103733333D01*
X131869047Y-104352380D02*
X131869047Y-103828571D01*
X131821428Y-103733333D01*
X131726190Y-103685714D01*
X131535714Y-103685714D01*
X131440476Y-103733333D01*
X131869047Y-104304761D02*
X131773809Y-104352380D01*
X131535714Y-104352380D01*
X131440476Y-104304761D01*
X131392857Y-104209523D01*
X131392857Y-104114285D01*
X131440476Y-104019047D01*
X131535714Y-103971428D01*
X131773809Y-103971428D01*
X131869047Y-103923809D01*
X120654761Y-106052380D02*
X120083333Y-106052380D01*
X120369047Y-106052380D02*
X120369047Y-105052380D01*
X120273809Y-105195238D01*
X120178571Y-105290476D01*
X120083333Y-105338095D01*
X120988095Y-105052380D02*
X121607142Y-105052380D01*
X121273809Y-105433333D01*
X121416666Y-105433333D01*
X121511904Y-105480952D01*
X121559523Y-105528571D01*
X121607142Y-105623809D01*
X121607142Y-105861904D01*
X121559523Y-105957142D01*
X121511904Y-106004761D01*
X121416666Y-106052380D01*
X121130952Y-106052380D01*
X121035714Y-106004761D01*
X120988095Y-105957142D01*
X122464285Y-105385714D02*
X122464285Y-106052380D01*
X122226190Y-105004761D02*
X121988095Y-105719047D01*
X122607142Y-105719047D01*
X122988095Y-105671428D02*
X123750000Y-105671428D01*
X124750000Y-106052380D02*
X124178571Y-106052380D01*
X124464285Y-106052380D02*
X124464285Y-105052380D01*
X124369047Y-105195238D01*
X124273809Y-105290476D01*
X124178571Y-105338095D01*
X125083333Y-105052380D02*
X125702380Y-105052380D01*
X125369047Y-105433333D01*
X125511904Y-105433333D01*
X125607142Y-105480952D01*
X125654761Y-105528571D01*
X125702380Y-105623809D01*
X125702380Y-105861904D01*
X125654761Y-105957142D01*
X125607142Y-106004761D01*
X125511904Y-106052380D01*
X125226190Y-106052380D01*
X125130952Y-106004761D01*
X125083333Y-105957142D01*
X126178571Y-106052380D02*
X126369047Y-106052380D01*
X126464285Y-106004761D01*
X126511904Y-105957142D01*
X126607142Y-105814285D01*
X126654761Y-105623809D01*
X126654761Y-105242857D01*
X126607142Y-105147619D01*
X126559523Y-105100000D01*
X126464285Y-105052380D01*
X126273809Y-105052380D01*
X126178571Y-105100000D01*
X126130952Y-105147619D01*
X126083333Y-105242857D01*
X126083333Y-105480952D01*
X126130952Y-105576190D01*
X126178571Y-105623809D01*
X126273809Y-105671428D01*
X126464285Y-105671428D01*
X126559523Y-105623809D01*
X126607142Y-105576190D01*
X126654761Y-105480952D01*
X127845238Y-106052380D02*
X127845238Y-105052380D01*
X128178571Y-105766666D01*
X128511904Y-105052380D01*
X128511904Y-106052380D01*
X128988095Y-106052380D02*
X128988095Y-105052380D01*
X128988095Y-105528571D02*
X129559523Y-105528571D01*
X129559523Y-106052380D02*
X129559523Y-105052380D01*
X129940476Y-105385714D02*
X130464285Y-105385714D01*
X129940476Y-106052380D01*
X130464285Y-106052380D01*
D11*
G04 #@! TO.C,C1*
X120460000Y-98491422D02*
X120460000Y-99008578D01*
X119040000Y-98491422D02*
X119040000Y-99008578D01*
G04 #@! TO.C,C2*
X123010398Y-97217551D02*
X122493242Y-97217551D01*
X123010398Y-98637551D02*
X122493242Y-98637551D01*
G04 #@! TO.C,C3*
X127431658Y-98710000D02*
X126914502Y-98710000D01*
X127431658Y-97290000D02*
X126914502Y-97290000D01*
G04 #@! TO.C,C4*
X131790000Y-98491422D02*
X131790000Y-99008578D01*
X133210000Y-98491422D02*
X133210000Y-99008578D01*
G04 #@! TO.C,ENTRADA*
X116460000Y-96750000D02*
X115960000Y-97000000D01*
X116460000Y-97250000D02*
X116460000Y-96750000D01*
X115960000Y-97000000D02*
X116460000Y-97250000D01*
G04 #@! TO.C,SALIDA*
X134540000Y-97000000D02*
X134040000Y-96750000D01*
X134040000Y-96750000D02*
X134040000Y-97250000D01*
X134040000Y-97250000D02*
X134540000Y-97000000D01*
G04 #@! TO.C,L1*
X118460000Y-98491422D02*
X118460000Y-99008578D01*
X117040000Y-98491422D02*
X117040000Y-99008578D01*
G04 #@! TO.C,L2*
X122608243Y-96822552D02*
X123125399Y-96822552D01*
X122608243Y-95402552D02*
X123125399Y-95402552D01*
G04 #@! TO.C,L3*
X126914502Y-95524228D02*
X127431658Y-95524228D01*
X126914502Y-96944228D02*
X127431658Y-96944228D01*
G04 #@! TO.C,L4*
X129790000Y-98491422D02*
X129790000Y-99008578D01*
X131210000Y-98491422D02*
X131210000Y-99008578D01*
G04 #@! TO.C,C1*
X120000000Y-94866666D02*
X120033333Y-94900000D01*
X120066666Y-95000000D01*
X120066666Y-95066666D01*
X120033333Y-95166666D01*
X119966666Y-95233333D01*
X119900000Y-95266666D01*
X119766666Y-95300000D01*
X119666666Y-95300000D01*
X119533333Y-95266666D01*
X119466666Y-95233333D01*
X119400000Y-95166666D01*
X119366666Y-95066666D01*
X119366666Y-95000000D01*
X119400000Y-94900000D01*
X119433333Y-94866666D01*
X120066666Y-94200000D02*
X120066666Y-94600000D01*
X120066666Y-94400000D02*
X119366666Y-94400000D01*
X119466666Y-94466666D01*
X119533333Y-94533333D01*
X119566666Y-94600000D01*
G04 #@! TO.C,C2*
X122635153Y-99827551D02*
X122601820Y-99860884D01*
X122501820Y-99894217D01*
X122435153Y-99894217D01*
X122335153Y-99860884D01*
X122268486Y-99794217D01*
X122235153Y-99727551D01*
X122201820Y-99594217D01*
X122201820Y-99494217D01*
X122235153Y-99360884D01*
X122268486Y-99294217D01*
X122335153Y-99227551D01*
X122435153Y-99194217D01*
X122501820Y-99194217D01*
X122601820Y-99227551D01*
X122635153Y-99260884D01*
X122901820Y-99260884D02*
X122935153Y-99227551D01*
X123001820Y-99194217D01*
X123168486Y-99194217D01*
X123235153Y-99227551D01*
X123268486Y-99260884D01*
X123301820Y-99327551D01*
X123301820Y-99394217D01*
X123268486Y-99494217D01*
X122868486Y-99894217D01*
X123301820Y-99894217D01*
G04 #@! TO.C,C3*
X127056413Y-99900000D02*
X127023080Y-99933333D01*
X126923080Y-99966666D01*
X126856413Y-99966666D01*
X126756413Y-99933333D01*
X126689746Y-99866666D01*
X126656413Y-99800000D01*
X126623080Y-99666666D01*
X126623080Y-99566666D01*
X126656413Y-99433333D01*
X126689746Y-99366666D01*
X126756413Y-99300000D01*
X126856413Y-99266666D01*
X126923080Y-99266666D01*
X127023080Y-99300000D01*
X127056413Y-99333333D01*
X127289746Y-99266666D02*
X127723080Y-99266666D01*
X127489746Y-99533333D01*
X127589746Y-99533333D01*
X127656413Y-99566666D01*
X127689746Y-99600000D01*
X127723080Y-99666666D01*
X127723080Y-99833333D01*
X127689746Y-99900000D01*
X127656413Y-99933333D01*
X127589746Y-99966666D01*
X127389746Y-99966666D01*
X127323080Y-99933333D01*
X127289746Y-99900000D01*
G04 #@! TO.C,C4*
X132750000Y-94866666D02*
X132783333Y-94900000D01*
X132816666Y-95000000D01*
X132816666Y-95066666D01*
X132783333Y-95166666D01*
X132716666Y-95233333D01*
X132650000Y-95266666D01*
X132516666Y-95300000D01*
X132416666Y-95300000D01*
X132283333Y-95266666D01*
X132216666Y-95233333D01*
X132150000Y-95166666D01*
X132116666Y-95066666D01*
X132116666Y-95000000D01*
X132150000Y-94900000D01*
X132183333Y-94866666D01*
X132350000Y-94266666D02*
X132816666Y-94266666D01*
X132083333Y-94433333D02*
X132583333Y-94600000D01*
X132583333Y-94166666D01*
G04 #@! TO.C,ENTRADA*
D12*
X115523809Y-90678571D02*
X115857142Y-90678571D01*
X116000000Y-91202380D02*
X115523809Y-91202380D01*
X115523809Y-90202380D01*
X116000000Y-90202380D01*
X116428571Y-91202380D02*
X116428571Y-90202380D01*
X117000000Y-91202380D01*
X117000000Y-90202380D01*
X117333333Y-90202380D02*
X117904761Y-90202380D01*
X117619047Y-91202380D02*
X117619047Y-90202380D01*
X118809523Y-91202380D02*
X118476190Y-90726190D01*
X118238095Y-91202380D02*
X118238095Y-90202380D01*
X118619047Y-90202380D01*
X118714285Y-90250000D01*
X118761904Y-90297619D01*
X118809523Y-90392857D01*
X118809523Y-90535714D01*
X118761904Y-90630952D01*
X118714285Y-90678571D01*
X118619047Y-90726190D01*
X118238095Y-90726190D01*
X119190476Y-90916666D02*
X119666666Y-90916666D01*
X119095238Y-91202380D02*
X119428571Y-90202380D01*
X119761904Y-91202380D01*
X120095238Y-91202380D02*
X120095238Y-90202380D01*
X120333333Y-90202380D01*
X120476190Y-90250000D01*
X120571428Y-90345238D01*
X120619047Y-90440476D01*
X120666666Y-90630952D01*
X120666666Y-90773809D01*
X120619047Y-90964285D01*
X120571428Y-91059523D01*
X120476190Y-91154761D01*
X120333333Y-91202380D01*
X120095238Y-91202380D01*
X121047619Y-90916666D02*
X121523809Y-90916666D01*
X120952380Y-91202380D02*
X121285714Y-90202380D01*
X121619047Y-91202380D01*
G04 #@! TO.C,SALIDA*
X130214285Y-91154761D02*
X130357142Y-91202380D01*
X130595238Y-91202380D01*
X130690476Y-91154761D01*
X130738095Y-91107142D01*
X130785714Y-91011904D01*
X130785714Y-90916666D01*
X130738095Y-90821428D01*
X130690476Y-90773809D01*
X130595238Y-90726190D01*
X130404761Y-90678571D01*
X130309523Y-90630952D01*
X130261904Y-90583333D01*
X130214285Y-90488095D01*
X130214285Y-90392857D01*
X130261904Y-90297619D01*
X130309523Y-90250000D01*
X130404761Y-90202380D01*
X130642857Y-90202380D01*
X130785714Y-90250000D01*
X131166666Y-90916666D02*
X131642857Y-90916666D01*
X131071428Y-91202380D02*
X131404761Y-90202380D01*
X131738095Y-91202380D01*
X132547619Y-91202380D02*
X132071428Y-91202380D01*
X132071428Y-90202380D01*
X132880952Y-91202380D02*
X132880952Y-90202380D01*
X133357142Y-91202380D02*
X133357142Y-90202380D01*
X133595238Y-90202380D01*
X133738095Y-90250000D01*
X133833333Y-90345238D01*
X133880952Y-90440476D01*
X133928571Y-90630952D01*
X133928571Y-90773809D01*
X133880952Y-90964285D01*
X133833333Y-91059523D01*
X133738095Y-91154761D01*
X133595238Y-91202380D01*
X133357142Y-91202380D01*
X134309523Y-90916666D02*
X134785714Y-90916666D01*
X134214285Y-91202380D02*
X134547619Y-90202380D01*
X134880952Y-91202380D01*
G04 #@! TO.C,L1*
D11*
X118066666Y-94866666D02*
X118066666Y-95200000D01*
X117366666Y-95200000D01*
X118066666Y-94266666D02*
X118066666Y-94666666D01*
X118066666Y-94466666D02*
X117366666Y-94466666D01*
X117466666Y-94533333D01*
X117533333Y-94600000D01*
X117566666Y-94666666D01*
G04 #@! TO.C,L2*
X122750154Y-94779218D02*
X122416821Y-94779218D01*
X122416821Y-94079218D01*
X122950154Y-94145885D02*
X122983487Y-94112552D01*
X123050154Y-94079218D01*
X123216821Y-94079218D01*
X123283487Y-94112552D01*
X123316821Y-94145885D01*
X123350154Y-94212552D01*
X123350154Y-94279218D01*
X123316821Y-94379218D01*
X122916821Y-94779218D01*
X123350154Y-94779218D01*
G04 #@! TO.C,L3*
X127056413Y-94900894D02*
X126723080Y-94900894D01*
X126723080Y-94200894D01*
X127223080Y-94200894D02*
X127656413Y-94200894D01*
X127423080Y-94467561D01*
X127523080Y-94467561D01*
X127589746Y-94500894D01*
X127623080Y-94534228D01*
X127656413Y-94600894D01*
X127656413Y-94767561D01*
X127623080Y-94834228D01*
X127589746Y-94867561D01*
X127523080Y-94900894D01*
X127323080Y-94900894D01*
X127256413Y-94867561D01*
X127223080Y-94834228D01*
G04 #@! TO.C,L4*
X130816666Y-94866666D02*
X130816666Y-95200000D01*
X130116666Y-95200000D01*
X130350000Y-94333333D02*
X130816666Y-94333333D01*
X130083333Y-94500000D02*
X130583333Y-94666666D01*
X130583333Y-94233333D01*
G04 #@! TD*
M02*
