G04 #@! TF.GenerationSoftware,KiCad,Pcbnew,(5.0.2)-1*
G04 #@! TF.CreationDate,2019-06-26T13:49:51+02:00*
G04 #@! TF.ProjectId,2.0,322e302e-6b69-4636-9164-5f7063625858,rev?*
G04 #@! TF.SameCoordinates,Original*
G04 #@! TF.FileFunction,Copper,L2,Bot*
G04 #@! TF.FilePolarity,Positive*
%FSLAX46Y46*%
G04 Gerber Fmt 4.6, Leading zero omitted, Abs format (unit mm)*
G04 Created by KiCad (PCBNEW (5.0.2)-1) date 06/26/19 13:49:51*
%MOMM*%
%LPD*%
G01*
G04 APERTURE LIST*
G04 #@! TA.AperFunction,SMDPad,CuDef*
%ADD10R,5.080000X1.500000*%
G04 #@! TD*
G04 #@! TA.AperFunction,ViaPad*
%ADD11C,0.800000*%
G04 #@! TD*
G04 #@! TA.AperFunction,Conductor*
%ADD12C,0.254000*%
G04 #@! TD*
G04 APERTURE END LIST*
D10*
G04 #@! TO.P,ENTRADA,2*
G04 #@! TO.N,Earth*
X112750000Y-92750000D03*
X112750000Y-101250000D03*
G04 #@! TD*
G04 #@! TO.P,SALIDA,2*
G04 #@! TO.N,Earth*
X137750000Y-92750000D03*
X137750000Y-101250000D03*
G04 #@! TD*
D11*
G04 #@! TO.N,Earth*
X123500000Y-107000000D03*
X134000000Y-107000000D03*
X120000000Y-107000000D03*
X130500000Y-107000000D03*
X127000000Y-107000000D03*
X116750000Y-107000000D03*
X116750000Y-101750000D03*
X127000000Y-101750000D03*
X123500000Y-101750000D03*
X134000000Y-101750000D03*
X120000000Y-101750000D03*
X130500000Y-101750000D03*
X118250000Y-104250000D03*
X125250000Y-104250000D03*
X132250000Y-104250000D03*
X121750000Y-104250000D03*
X128750000Y-104250000D03*
X121750000Y-89750000D03*
X132250000Y-89750000D03*
X128750000Y-89750000D03*
X125250000Y-89750000D03*
X118250000Y-89750000D03*
X116500000Y-87250000D03*
X120000000Y-87250000D03*
X123500000Y-87250000D03*
X127000000Y-87250000D03*
X130500000Y-87250000D03*
X134000000Y-87250000D03*
X134000000Y-92250000D03*
X130500000Y-92250000D03*
X127000000Y-92250000D03*
X123500000Y-92250000D03*
X120000000Y-92250000D03*
X116500000Y-92250000D03*
X135500000Y-104250000D03*
X115000000Y-104250000D03*
X135750000Y-89750000D03*
X114750000Y-89750000D03*
G04 #@! TD*
D12*
G04 #@! TO.N,Earth*
G36*
X140123000Y-91365000D02*
X138035750Y-91365000D01*
X137877000Y-91523750D01*
X137877000Y-92623000D01*
X137897000Y-92623000D01*
X137897000Y-92877000D01*
X137877000Y-92877000D01*
X137877000Y-93976250D01*
X138035750Y-94135000D01*
X140123000Y-94135000D01*
X140123001Y-99865000D01*
X138035750Y-99865000D01*
X137877000Y-100023750D01*
X137877000Y-101123000D01*
X137897000Y-101123000D01*
X137897000Y-101377000D01*
X137877000Y-101377000D01*
X137877000Y-102476250D01*
X138035750Y-102635000D01*
X140123001Y-102635000D01*
X140123001Y-107623000D01*
X110377000Y-107623000D01*
X110377000Y-105109453D01*
X111323000Y-105109453D01*
X111323000Y-105390547D01*
X111377838Y-105666241D01*
X111485409Y-105925938D01*
X111641576Y-106159660D01*
X111840340Y-106358424D01*
X112074062Y-106514591D01*
X112333759Y-106622162D01*
X112609453Y-106677000D01*
X112890547Y-106677000D01*
X113166241Y-106622162D01*
X113425938Y-106514591D01*
X113659660Y-106358424D01*
X113858424Y-106159660D01*
X114014591Y-105925938D01*
X114122162Y-105666241D01*
X114177000Y-105390547D01*
X114177000Y-105109453D01*
X136323000Y-105109453D01*
X136323000Y-105390547D01*
X136377838Y-105666241D01*
X136485409Y-105925938D01*
X136641576Y-106159660D01*
X136840340Y-106358424D01*
X137074062Y-106514591D01*
X137333759Y-106622162D01*
X137609453Y-106677000D01*
X137890547Y-106677000D01*
X138166241Y-106622162D01*
X138425938Y-106514591D01*
X138659660Y-106358424D01*
X138858424Y-106159660D01*
X139014591Y-105925938D01*
X139122162Y-105666241D01*
X139177000Y-105390547D01*
X139177000Y-105109453D01*
X139122162Y-104833759D01*
X139014591Y-104574062D01*
X138858424Y-104340340D01*
X138659660Y-104141576D01*
X138425938Y-103985409D01*
X138166241Y-103877838D01*
X137890547Y-103823000D01*
X137609453Y-103823000D01*
X137333759Y-103877838D01*
X137074062Y-103985409D01*
X136840340Y-104141576D01*
X136641576Y-104340340D01*
X136485409Y-104574062D01*
X136377838Y-104833759D01*
X136323000Y-105109453D01*
X114177000Y-105109453D01*
X114122162Y-104833759D01*
X114014591Y-104574062D01*
X113858424Y-104340340D01*
X113659660Y-104141576D01*
X113425938Y-103985409D01*
X113166241Y-103877838D01*
X112890547Y-103823000D01*
X112609453Y-103823000D01*
X112333759Y-103877838D01*
X112074062Y-103985409D01*
X111840340Y-104141576D01*
X111641576Y-104340340D01*
X111485409Y-104574062D01*
X111377838Y-104833759D01*
X111323000Y-105109453D01*
X110377000Y-105109453D01*
X110377000Y-102635000D01*
X112464250Y-102635000D01*
X112623000Y-102476250D01*
X112623000Y-101377000D01*
X112877000Y-101377000D01*
X112877000Y-102476250D01*
X113035750Y-102635000D01*
X115352542Y-102635000D01*
X115475223Y-102610597D01*
X115590785Y-102562730D01*
X115694789Y-102493237D01*
X115783237Y-102404789D01*
X115852730Y-102300785D01*
X115900597Y-102185223D01*
X115925000Y-102062542D01*
X115925000Y-101535750D01*
X134575000Y-101535750D01*
X134575000Y-102062542D01*
X134599403Y-102185223D01*
X134647270Y-102300785D01*
X134716763Y-102404789D01*
X134805211Y-102493237D01*
X134909215Y-102562730D01*
X135024777Y-102610597D01*
X135147458Y-102635000D01*
X137464250Y-102635000D01*
X137623000Y-102476250D01*
X137623000Y-101377000D01*
X134733750Y-101377000D01*
X134575000Y-101535750D01*
X115925000Y-101535750D01*
X115766250Y-101377000D01*
X112877000Y-101377000D01*
X112623000Y-101377000D01*
X112603000Y-101377000D01*
X112603000Y-101123000D01*
X112623000Y-101123000D01*
X112623000Y-100023750D01*
X112877000Y-100023750D01*
X112877000Y-101123000D01*
X115766250Y-101123000D01*
X115925000Y-100964250D01*
X115925000Y-100437458D01*
X134575000Y-100437458D01*
X134575000Y-100964250D01*
X134733750Y-101123000D01*
X137623000Y-101123000D01*
X137623000Y-100023750D01*
X137464250Y-99865000D01*
X135147458Y-99865000D01*
X135024777Y-99889403D01*
X134909215Y-99937270D01*
X134805211Y-100006763D01*
X134716763Y-100095211D01*
X134647270Y-100199215D01*
X134599403Y-100314777D01*
X134575000Y-100437458D01*
X115925000Y-100437458D01*
X115900597Y-100314777D01*
X115852730Y-100199215D01*
X115783237Y-100095211D01*
X115694789Y-100006763D01*
X115590785Y-99937270D01*
X115475223Y-99889403D01*
X115352542Y-99865000D01*
X113035750Y-99865000D01*
X112877000Y-100023750D01*
X112623000Y-100023750D01*
X112464250Y-99865000D01*
X110377000Y-99865000D01*
X110377000Y-94135000D01*
X112464250Y-94135000D01*
X112623000Y-93976250D01*
X112623000Y-92877000D01*
X112877000Y-92877000D01*
X112877000Y-93976250D01*
X113035750Y-94135000D01*
X115352542Y-94135000D01*
X115475223Y-94110597D01*
X115590785Y-94062730D01*
X115694789Y-93993237D01*
X115783237Y-93904789D01*
X115852730Y-93800785D01*
X115900597Y-93685223D01*
X115925000Y-93562542D01*
X115925000Y-93035750D01*
X134575000Y-93035750D01*
X134575000Y-93562542D01*
X134599403Y-93685223D01*
X134647270Y-93800785D01*
X134716763Y-93904789D01*
X134805211Y-93993237D01*
X134909215Y-94062730D01*
X135024777Y-94110597D01*
X135147458Y-94135000D01*
X137464250Y-94135000D01*
X137623000Y-93976250D01*
X137623000Y-92877000D01*
X134733750Y-92877000D01*
X134575000Y-93035750D01*
X115925000Y-93035750D01*
X115766250Y-92877000D01*
X112877000Y-92877000D01*
X112623000Y-92877000D01*
X112603000Y-92877000D01*
X112603000Y-92623000D01*
X112623000Y-92623000D01*
X112623000Y-91523750D01*
X112877000Y-91523750D01*
X112877000Y-92623000D01*
X115766250Y-92623000D01*
X115925000Y-92464250D01*
X115925000Y-91937458D01*
X134575000Y-91937458D01*
X134575000Y-92464250D01*
X134733750Y-92623000D01*
X137623000Y-92623000D01*
X137623000Y-91523750D01*
X137464250Y-91365000D01*
X135147458Y-91365000D01*
X135024777Y-91389403D01*
X134909215Y-91437270D01*
X134805211Y-91506763D01*
X134716763Y-91595211D01*
X134647270Y-91699215D01*
X134599403Y-91814777D01*
X134575000Y-91937458D01*
X115925000Y-91937458D01*
X115900597Y-91814777D01*
X115852730Y-91699215D01*
X115783237Y-91595211D01*
X115694789Y-91506763D01*
X115590785Y-91437270D01*
X115475223Y-91389403D01*
X115352542Y-91365000D01*
X113035750Y-91365000D01*
X112877000Y-91523750D01*
X112623000Y-91523750D01*
X112464250Y-91365000D01*
X110377000Y-91365000D01*
X110377000Y-88609453D01*
X111323000Y-88609453D01*
X111323000Y-88890547D01*
X111377838Y-89166241D01*
X111485409Y-89425938D01*
X111641576Y-89659660D01*
X111840340Y-89858424D01*
X112074062Y-90014591D01*
X112333759Y-90122162D01*
X112609453Y-90177000D01*
X112890547Y-90177000D01*
X113166241Y-90122162D01*
X113425938Y-90014591D01*
X113659660Y-89858424D01*
X113858424Y-89659660D01*
X114014591Y-89425938D01*
X114122162Y-89166241D01*
X114177000Y-88890547D01*
X114177000Y-88609453D01*
X136323000Y-88609453D01*
X136323000Y-88890547D01*
X136377838Y-89166241D01*
X136485409Y-89425938D01*
X136641576Y-89659660D01*
X136840340Y-89858424D01*
X137074062Y-90014591D01*
X137333759Y-90122162D01*
X137609453Y-90177000D01*
X137890547Y-90177000D01*
X138166241Y-90122162D01*
X138425938Y-90014591D01*
X138659660Y-89858424D01*
X138858424Y-89659660D01*
X139014591Y-89425938D01*
X139122162Y-89166241D01*
X139177000Y-88890547D01*
X139177000Y-88609453D01*
X139122162Y-88333759D01*
X139014591Y-88074062D01*
X138858424Y-87840340D01*
X138659660Y-87641576D01*
X138425938Y-87485409D01*
X138166241Y-87377838D01*
X137890547Y-87323000D01*
X137609453Y-87323000D01*
X137333759Y-87377838D01*
X137074062Y-87485409D01*
X136840340Y-87641576D01*
X136641576Y-87840340D01*
X136485409Y-88074062D01*
X136377838Y-88333759D01*
X136323000Y-88609453D01*
X114177000Y-88609453D01*
X114122162Y-88333759D01*
X114014591Y-88074062D01*
X113858424Y-87840340D01*
X113659660Y-87641576D01*
X113425938Y-87485409D01*
X113166241Y-87377838D01*
X112890547Y-87323000D01*
X112609453Y-87323000D01*
X112333759Y-87377838D01*
X112074062Y-87485409D01*
X111840340Y-87641576D01*
X111641576Y-87840340D01*
X111485409Y-88074062D01*
X111377838Y-88333759D01*
X111323000Y-88609453D01*
X110377000Y-88609453D01*
X110377000Y-86377000D01*
X140123000Y-86377000D01*
X140123000Y-91365000D01*
X140123000Y-91365000D01*
G37*
X140123000Y-91365000D02*
X138035750Y-91365000D01*
X137877000Y-91523750D01*
X137877000Y-92623000D01*
X137897000Y-92623000D01*
X137897000Y-92877000D01*
X137877000Y-92877000D01*
X137877000Y-93976250D01*
X138035750Y-94135000D01*
X140123000Y-94135000D01*
X140123001Y-99865000D01*
X138035750Y-99865000D01*
X137877000Y-100023750D01*
X137877000Y-101123000D01*
X137897000Y-101123000D01*
X137897000Y-101377000D01*
X137877000Y-101377000D01*
X137877000Y-102476250D01*
X138035750Y-102635000D01*
X140123001Y-102635000D01*
X140123001Y-107623000D01*
X110377000Y-107623000D01*
X110377000Y-105109453D01*
X111323000Y-105109453D01*
X111323000Y-105390547D01*
X111377838Y-105666241D01*
X111485409Y-105925938D01*
X111641576Y-106159660D01*
X111840340Y-106358424D01*
X112074062Y-106514591D01*
X112333759Y-106622162D01*
X112609453Y-106677000D01*
X112890547Y-106677000D01*
X113166241Y-106622162D01*
X113425938Y-106514591D01*
X113659660Y-106358424D01*
X113858424Y-106159660D01*
X114014591Y-105925938D01*
X114122162Y-105666241D01*
X114177000Y-105390547D01*
X114177000Y-105109453D01*
X136323000Y-105109453D01*
X136323000Y-105390547D01*
X136377838Y-105666241D01*
X136485409Y-105925938D01*
X136641576Y-106159660D01*
X136840340Y-106358424D01*
X137074062Y-106514591D01*
X137333759Y-106622162D01*
X137609453Y-106677000D01*
X137890547Y-106677000D01*
X138166241Y-106622162D01*
X138425938Y-106514591D01*
X138659660Y-106358424D01*
X138858424Y-106159660D01*
X139014591Y-105925938D01*
X139122162Y-105666241D01*
X139177000Y-105390547D01*
X139177000Y-105109453D01*
X139122162Y-104833759D01*
X139014591Y-104574062D01*
X138858424Y-104340340D01*
X138659660Y-104141576D01*
X138425938Y-103985409D01*
X138166241Y-103877838D01*
X137890547Y-103823000D01*
X137609453Y-103823000D01*
X137333759Y-103877838D01*
X137074062Y-103985409D01*
X136840340Y-104141576D01*
X136641576Y-104340340D01*
X136485409Y-104574062D01*
X136377838Y-104833759D01*
X136323000Y-105109453D01*
X114177000Y-105109453D01*
X114122162Y-104833759D01*
X114014591Y-104574062D01*
X113858424Y-104340340D01*
X113659660Y-104141576D01*
X113425938Y-103985409D01*
X113166241Y-103877838D01*
X112890547Y-103823000D01*
X112609453Y-103823000D01*
X112333759Y-103877838D01*
X112074062Y-103985409D01*
X111840340Y-104141576D01*
X111641576Y-104340340D01*
X111485409Y-104574062D01*
X111377838Y-104833759D01*
X111323000Y-105109453D01*
X110377000Y-105109453D01*
X110377000Y-102635000D01*
X112464250Y-102635000D01*
X112623000Y-102476250D01*
X112623000Y-101377000D01*
X112877000Y-101377000D01*
X112877000Y-102476250D01*
X113035750Y-102635000D01*
X115352542Y-102635000D01*
X115475223Y-102610597D01*
X115590785Y-102562730D01*
X115694789Y-102493237D01*
X115783237Y-102404789D01*
X115852730Y-102300785D01*
X115900597Y-102185223D01*
X115925000Y-102062542D01*
X115925000Y-101535750D01*
X134575000Y-101535750D01*
X134575000Y-102062542D01*
X134599403Y-102185223D01*
X134647270Y-102300785D01*
X134716763Y-102404789D01*
X134805211Y-102493237D01*
X134909215Y-102562730D01*
X135024777Y-102610597D01*
X135147458Y-102635000D01*
X137464250Y-102635000D01*
X137623000Y-102476250D01*
X137623000Y-101377000D01*
X134733750Y-101377000D01*
X134575000Y-101535750D01*
X115925000Y-101535750D01*
X115766250Y-101377000D01*
X112877000Y-101377000D01*
X112623000Y-101377000D01*
X112603000Y-101377000D01*
X112603000Y-101123000D01*
X112623000Y-101123000D01*
X112623000Y-100023750D01*
X112877000Y-100023750D01*
X112877000Y-101123000D01*
X115766250Y-101123000D01*
X115925000Y-100964250D01*
X115925000Y-100437458D01*
X134575000Y-100437458D01*
X134575000Y-100964250D01*
X134733750Y-101123000D01*
X137623000Y-101123000D01*
X137623000Y-100023750D01*
X137464250Y-99865000D01*
X135147458Y-99865000D01*
X135024777Y-99889403D01*
X134909215Y-99937270D01*
X134805211Y-100006763D01*
X134716763Y-100095211D01*
X134647270Y-100199215D01*
X134599403Y-100314777D01*
X134575000Y-100437458D01*
X115925000Y-100437458D01*
X115900597Y-100314777D01*
X115852730Y-100199215D01*
X115783237Y-100095211D01*
X115694789Y-100006763D01*
X115590785Y-99937270D01*
X115475223Y-99889403D01*
X115352542Y-99865000D01*
X113035750Y-99865000D01*
X112877000Y-100023750D01*
X112623000Y-100023750D01*
X112464250Y-99865000D01*
X110377000Y-99865000D01*
X110377000Y-94135000D01*
X112464250Y-94135000D01*
X112623000Y-93976250D01*
X112623000Y-92877000D01*
X112877000Y-92877000D01*
X112877000Y-93976250D01*
X113035750Y-94135000D01*
X115352542Y-94135000D01*
X115475223Y-94110597D01*
X115590785Y-94062730D01*
X115694789Y-93993237D01*
X115783237Y-93904789D01*
X115852730Y-93800785D01*
X115900597Y-93685223D01*
X115925000Y-93562542D01*
X115925000Y-93035750D01*
X134575000Y-93035750D01*
X134575000Y-93562542D01*
X134599403Y-93685223D01*
X134647270Y-93800785D01*
X134716763Y-93904789D01*
X134805211Y-93993237D01*
X134909215Y-94062730D01*
X135024777Y-94110597D01*
X135147458Y-94135000D01*
X137464250Y-94135000D01*
X137623000Y-93976250D01*
X137623000Y-92877000D01*
X134733750Y-92877000D01*
X134575000Y-93035750D01*
X115925000Y-93035750D01*
X115766250Y-92877000D01*
X112877000Y-92877000D01*
X112623000Y-92877000D01*
X112603000Y-92877000D01*
X112603000Y-92623000D01*
X112623000Y-92623000D01*
X112623000Y-91523750D01*
X112877000Y-91523750D01*
X112877000Y-92623000D01*
X115766250Y-92623000D01*
X115925000Y-92464250D01*
X115925000Y-91937458D01*
X134575000Y-91937458D01*
X134575000Y-92464250D01*
X134733750Y-92623000D01*
X137623000Y-92623000D01*
X137623000Y-91523750D01*
X137464250Y-91365000D01*
X135147458Y-91365000D01*
X135024777Y-91389403D01*
X134909215Y-91437270D01*
X134805211Y-91506763D01*
X134716763Y-91595211D01*
X134647270Y-91699215D01*
X134599403Y-91814777D01*
X134575000Y-91937458D01*
X115925000Y-91937458D01*
X115900597Y-91814777D01*
X115852730Y-91699215D01*
X115783237Y-91595211D01*
X115694789Y-91506763D01*
X115590785Y-91437270D01*
X115475223Y-91389403D01*
X115352542Y-91365000D01*
X113035750Y-91365000D01*
X112877000Y-91523750D01*
X112623000Y-91523750D01*
X112464250Y-91365000D01*
X110377000Y-91365000D01*
X110377000Y-88609453D01*
X111323000Y-88609453D01*
X111323000Y-88890547D01*
X111377838Y-89166241D01*
X111485409Y-89425938D01*
X111641576Y-89659660D01*
X111840340Y-89858424D01*
X112074062Y-90014591D01*
X112333759Y-90122162D01*
X112609453Y-90177000D01*
X112890547Y-90177000D01*
X113166241Y-90122162D01*
X113425938Y-90014591D01*
X113659660Y-89858424D01*
X113858424Y-89659660D01*
X114014591Y-89425938D01*
X114122162Y-89166241D01*
X114177000Y-88890547D01*
X114177000Y-88609453D01*
X136323000Y-88609453D01*
X136323000Y-88890547D01*
X136377838Y-89166241D01*
X136485409Y-89425938D01*
X136641576Y-89659660D01*
X136840340Y-89858424D01*
X137074062Y-90014591D01*
X137333759Y-90122162D01*
X137609453Y-90177000D01*
X137890547Y-90177000D01*
X138166241Y-90122162D01*
X138425938Y-90014591D01*
X138659660Y-89858424D01*
X138858424Y-89659660D01*
X139014591Y-89425938D01*
X139122162Y-89166241D01*
X139177000Y-88890547D01*
X139177000Y-88609453D01*
X139122162Y-88333759D01*
X139014591Y-88074062D01*
X138858424Y-87840340D01*
X138659660Y-87641576D01*
X138425938Y-87485409D01*
X138166241Y-87377838D01*
X137890547Y-87323000D01*
X137609453Y-87323000D01*
X137333759Y-87377838D01*
X137074062Y-87485409D01*
X136840340Y-87641576D01*
X136641576Y-87840340D01*
X136485409Y-88074062D01*
X136377838Y-88333759D01*
X136323000Y-88609453D01*
X114177000Y-88609453D01*
X114122162Y-88333759D01*
X114014591Y-88074062D01*
X113858424Y-87840340D01*
X113659660Y-87641576D01*
X113425938Y-87485409D01*
X113166241Y-87377838D01*
X112890547Y-87323000D01*
X112609453Y-87323000D01*
X112333759Y-87377838D01*
X112074062Y-87485409D01*
X111840340Y-87641576D01*
X111641576Y-87840340D01*
X111485409Y-88074062D01*
X111377838Y-88333759D01*
X111323000Y-88609453D01*
X110377000Y-88609453D01*
X110377000Y-86377000D01*
X140123000Y-86377000D01*
X140123000Y-91365000D01*
G04 #@! TD*
M02*
