M48
;DRILL file {KiCad (5.0.2)-1} date 06/26/19 13:49:38
;FORMAT={-:-/ absolute / metric / decimal}
FMAT,2
METRIC,TZ
T1C0.400
%
G90
G05
T1
X114.75Y-89.75
X115.Y-104.25
X116.5Y-87.25
X116.5Y-92.25
X116.75Y-101.75
X116.75Y-107.
X118.25Y-89.75
X118.25Y-104.25
X120.Y-87.25
X120.Y-92.25
X120.Y-101.75
X120.Y-107.
X121.75Y-89.75
X121.75Y-104.25
X123.5Y-87.25
X123.5Y-92.25
X123.5Y-101.75
X123.5Y-107.
X125.25Y-89.75
X125.25Y-104.25
X127.Y-87.25
X127.Y-92.25
X127.Y-101.75
X127.Y-107.
X128.75Y-89.75
X128.75Y-104.25
X130.5Y-87.25
X130.5Y-92.25
X130.5Y-101.75
X130.5Y-107.
X132.25Y-89.75
X132.25Y-104.25
X134.Y-87.25
X134.Y-92.25
X134.Y-101.75
X134.Y-107.
X135.5Y-104.25
X135.75Y-89.75
T0
M30
