M48
;DRILL file {KiCad (5.0.2)-1} date 07/18/20 19:28:24
;FORMAT={-:-/ absolute / metric / decimal}
FMAT,2
METRIC,TZ
T1C0.400
%
G90
G05
T1
X113.5Y-94.1
X113.5Y-96.2
X113.6Y-104.7
X113.6Y-106.8
X115.4Y-95.2
X115.5Y-105.8
X117.5Y-94.1
X117.5Y-96.2
X117.6Y-104.7
X117.6Y-106.8
X119.4Y-95.2
X119.5Y-105.8
X121.5Y-94.1
X121.5Y-96.2
X121.6Y-104.7
X121.6Y-106.8
X123.4Y-95.2
X123.5Y-105.8
X125.5Y-94.1
X125.5Y-96.2
X125.6Y-104.7
X125.6Y-106.8
X127.4Y-95.2
X127.5Y-105.8
X129.5Y-94.1
X129.5Y-96.2
X129.6Y-104.7
X129.6Y-106.8
X131.4Y-95.2
X131.5Y-105.8
X133.5Y-94.1
X133.5Y-96.2
X133.6Y-104.7
X133.6Y-106.8
X135.4Y-95.2
X135.5Y-105.8
X137.5Y-94.1
X137.5Y-96.2
X137.6Y-104.7
X137.6Y-106.8
X139.4Y-95.2
X139.5Y-105.8
X141.5Y-94.1
X141.5Y-96.2
X141.6Y-104.7
X141.6Y-106.8
X143.4Y-95.2
X143.5Y-105.8
X145.5Y-94.1
X145.5Y-96.2
X145.6Y-104.7
X145.6Y-106.8
X147.4Y-95.2
X147.5Y-105.8
X149.5Y-94.1
X149.5Y-96.2
X149.6Y-104.7
X149.6Y-106.8
X151.4Y-95.2
X151.5Y-105.8
X153.5Y-94.1
X153.5Y-96.2
X153.6Y-104.7
X153.6Y-106.8
X155.4Y-95.2
X155.5Y-105.8
X157.5Y-94.1
X157.5Y-96.2
X157.6Y-104.7
X157.6Y-106.8
X159.4Y-95.2
X159.5Y-105.8
X161.5Y-94.1
X161.5Y-96.2
X161.6Y-104.7
X161.6Y-106.8
X163.4Y-95.2
X163.5Y-105.8
X165.5Y-94.1
X165.5Y-96.2
X165.6Y-104.7
X165.6Y-106.8
X167.4Y-95.2
X167.5Y-105.8
T0
M30
