G04 #@! TF.GenerationSoftware,KiCad,Pcbnew,(5.0.2)-1*
G04 #@! TF.CreationDate,2020-07-18T19:28:28+02:00*
G04 #@! TF.ProjectId,PCB,5043422e-6b69-4636-9164-5f7063625858,rev?*
G04 #@! TF.SameCoordinates,Original*
G04 #@! TF.FileFunction,Legend,Top*
G04 #@! TF.FilePolarity,Positive*
%FSLAX46Y46*%
G04 Gerber Fmt 4.6, Leading zero omitted, Abs format (unit mm)*
G04 Created by KiCad (PCBNEW (5.0.2)-1) date 07/18/20 19:28:28*
%MOMM*%
%LPD*%
G01*
G04 APERTURE LIST*
%ADD10C,0.200000*%
%ADD11C,0.120000*%
%ADD12C,0.150000*%
G04 APERTURE END LIST*
D10*
X138400000Y-105728571D02*
X138733333Y-105728571D01*
X138876190Y-106252380D02*
X138400000Y-106252380D01*
X138400000Y-105252380D01*
X138876190Y-105252380D01*
X139257142Y-105966666D02*
X139733333Y-105966666D01*
X139161904Y-106252380D02*
X139495238Y-105252380D01*
X139828571Y-106252380D01*
X140590476Y-105585714D02*
X140590476Y-106252380D01*
X140352380Y-105204761D02*
X140114285Y-105919047D01*
X140733333Y-105919047D01*
X141114285Y-106252380D02*
X141114285Y-105252380D01*
X141114285Y-105728571D02*
X141685714Y-105728571D01*
X141685714Y-106252380D02*
X141685714Y-105252380D01*
X142495238Y-105728571D02*
X142161904Y-105728571D01*
X142161904Y-106252380D02*
X142161904Y-105252380D01*
X142638095Y-105252380D01*
X142876190Y-105252380D02*
X143209523Y-106252380D01*
X143542857Y-105252380D01*
X127795238Y-95228571D02*
X127461904Y-95228571D01*
X127461904Y-95752380D02*
X127461904Y-94752380D01*
X127938095Y-94752380D01*
X128319047Y-95752380D02*
X128319047Y-95085714D01*
X128319047Y-94752380D02*
X128271428Y-94800000D01*
X128319047Y-94847619D01*
X128366666Y-94800000D01*
X128319047Y-94752380D01*
X128319047Y-94847619D01*
X128938095Y-95752380D02*
X128842857Y-95704761D01*
X128795238Y-95609523D01*
X128795238Y-94752380D01*
X129176190Y-95085714D02*
X129557142Y-95085714D01*
X129319047Y-94752380D02*
X129319047Y-95609523D01*
X129366666Y-95704761D01*
X129461904Y-95752380D01*
X129557142Y-95752380D01*
X129890476Y-95752380D02*
X129890476Y-95085714D01*
X129890476Y-95276190D02*
X129938095Y-95180952D01*
X129985714Y-95133333D01*
X130080952Y-95085714D01*
X130176190Y-95085714D01*
X130652380Y-95752380D02*
X130557142Y-95704761D01*
X130509523Y-95657142D01*
X130461904Y-95561904D01*
X130461904Y-95276190D01*
X130509523Y-95180952D01*
X130557142Y-95133333D01*
X130652380Y-95085714D01*
X130795238Y-95085714D01*
X130890476Y-95133333D01*
X130938095Y-95180952D01*
X130985714Y-95276190D01*
X130985714Y-95561904D01*
X130938095Y-95657142D01*
X130890476Y-95704761D01*
X130795238Y-95752380D01*
X130652380Y-95752380D01*
X132176190Y-95085714D02*
X132176190Y-96085714D01*
X132176190Y-95133333D02*
X132271428Y-95085714D01*
X132461904Y-95085714D01*
X132557142Y-95133333D01*
X132604761Y-95180952D01*
X132652380Y-95276190D01*
X132652380Y-95561904D01*
X132604761Y-95657142D01*
X132557142Y-95704761D01*
X132461904Y-95752380D01*
X132271428Y-95752380D01*
X132176190Y-95704761D01*
X133509523Y-95752380D02*
X133509523Y-95228571D01*
X133461904Y-95133333D01*
X133366666Y-95085714D01*
X133176190Y-95085714D01*
X133080952Y-95133333D01*
X133509523Y-95704761D02*
X133414285Y-95752380D01*
X133176190Y-95752380D01*
X133080952Y-95704761D01*
X133033333Y-95609523D01*
X133033333Y-95514285D01*
X133080952Y-95419047D01*
X133176190Y-95371428D01*
X133414285Y-95371428D01*
X133509523Y-95323809D01*
X133938095Y-95704761D02*
X134033333Y-95752380D01*
X134223809Y-95752380D01*
X134319047Y-95704761D01*
X134366666Y-95609523D01*
X134366666Y-95561904D01*
X134319047Y-95466666D01*
X134223809Y-95419047D01*
X134080952Y-95419047D01*
X133985714Y-95371428D01*
X133938095Y-95276190D01*
X133938095Y-95228571D01*
X133985714Y-95133333D01*
X134080952Y-95085714D01*
X134223809Y-95085714D01*
X134319047Y-95133333D01*
X134938095Y-95752380D02*
X134842857Y-95704761D01*
X134795238Y-95657142D01*
X134747619Y-95561904D01*
X134747619Y-95276190D01*
X134795238Y-95180952D01*
X134842857Y-95133333D01*
X134938095Y-95085714D01*
X135080952Y-95085714D01*
X135176190Y-95133333D01*
X135223809Y-95180952D01*
X135271428Y-95276190D01*
X135271428Y-95561904D01*
X135223809Y-95657142D01*
X135176190Y-95704761D01*
X135080952Y-95752380D01*
X134938095Y-95752380D01*
X136461904Y-95752380D02*
X136461904Y-94752380D01*
X136461904Y-95133333D02*
X136557142Y-95085714D01*
X136747619Y-95085714D01*
X136842857Y-95133333D01*
X136890476Y-95180952D01*
X136938095Y-95276190D01*
X136938095Y-95561904D01*
X136890476Y-95657142D01*
X136842857Y-95704761D01*
X136747619Y-95752380D01*
X136557142Y-95752380D01*
X136461904Y-95704761D01*
X137795238Y-95752380D02*
X137795238Y-95228571D01*
X137747619Y-95133333D01*
X137652380Y-95085714D01*
X137461904Y-95085714D01*
X137366666Y-95133333D01*
X137795238Y-95704761D02*
X137700000Y-95752380D01*
X137461904Y-95752380D01*
X137366666Y-95704761D01*
X137319047Y-95609523D01*
X137319047Y-95514285D01*
X137366666Y-95419047D01*
X137461904Y-95371428D01*
X137700000Y-95371428D01*
X137795238Y-95323809D01*
X138271428Y-95085714D02*
X138271428Y-95752380D01*
X138271428Y-95180952D02*
X138319047Y-95133333D01*
X138414285Y-95085714D01*
X138557142Y-95085714D01*
X138652380Y-95133333D01*
X138700000Y-95228571D01*
X138700000Y-95752380D01*
X139604761Y-95752380D02*
X139604761Y-94752380D01*
X139604761Y-95704761D02*
X139509523Y-95752380D01*
X139319047Y-95752380D01*
X139223809Y-95704761D01*
X139176190Y-95657142D01*
X139128571Y-95561904D01*
X139128571Y-95276190D01*
X139176190Y-95180952D01*
X139223809Y-95133333D01*
X139319047Y-95085714D01*
X139509523Y-95085714D01*
X139604761Y-95133333D01*
X140509523Y-95752380D02*
X140509523Y-95228571D01*
X140461904Y-95133333D01*
X140366666Y-95085714D01*
X140176190Y-95085714D01*
X140080952Y-95133333D01*
X140509523Y-95704761D02*
X140414285Y-95752380D01*
X140176190Y-95752380D01*
X140080952Y-95704761D01*
X140033333Y-95609523D01*
X140033333Y-95514285D01*
X140080952Y-95419047D01*
X140176190Y-95371428D01*
X140414285Y-95371428D01*
X140509523Y-95323809D01*
X141747619Y-95752380D02*
X141747619Y-94752380D01*
X142319047Y-95752380D01*
X142319047Y-94752380D01*
X142985714Y-94752380D02*
X143176190Y-94752380D01*
X143271428Y-94800000D01*
X143366666Y-94895238D01*
X143414285Y-95085714D01*
X143414285Y-95419047D01*
X143366666Y-95609523D01*
X143271428Y-95704761D01*
X143176190Y-95752380D01*
X142985714Y-95752380D01*
X142890476Y-95704761D01*
X142795238Y-95609523D01*
X142747619Y-95419047D01*
X142747619Y-95085714D01*
X142795238Y-94895238D01*
X142890476Y-94800000D01*
X142985714Y-94752380D01*
X143795238Y-95466666D02*
X144271428Y-95466666D01*
X143700000Y-95752380D02*
X144033333Y-94752380D01*
X144366666Y-95752380D01*
X144652380Y-95466666D02*
X145128571Y-95466666D01*
X144557142Y-95752380D02*
X144890476Y-94752380D01*
X145223809Y-95752380D01*
X146223809Y-95085714D02*
X146461904Y-95752380D01*
X146700000Y-95085714D02*
X146461904Y-95752380D01*
X146366666Y-95990476D01*
X146319047Y-96038095D01*
X146223809Y-96085714D01*
X147842857Y-95752380D02*
X147842857Y-94752380D01*
X147842857Y-95133333D02*
X147938095Y-95085714D01*
X148128571Y-95085714D01*
X148223809Y-95133333D01*
X148271428Y-95180952D01*
X148319047Y-95276190D01*
X148319047Y-95561904D01*
X148271428Y-95657142D01*
X148223809Y-95704761D01*
X148128571Y-95752380D01*
X147938095Y-95752380D01*
X147842857Y-95704761D01*
X149176190Y-95752380D02*
X149176190Y-95228571D01*
X149128571Y-95133333D01*
X149033333Y-95085714D01*
X148842857Y-95085714D01*
X148747619Y-95133333D01*
X149176190Y-95704761D02*
X149080952Y-95752380D01*
X148842857Y-95752380D01*
X148747619Y-95704761D01*
X148700000Y-95609523D01*
X148700000Y-95514285D01*
X148747619Y-95419047D01*
X148842857Y-95371428D01*
X149080952Y-95371428D01*
X149176190Y-95323809D01*
X149652380Y-95085714D02*
X149652380Y-95752380D01*
X149652380Y-95180952D02*
X149700000Y-95133333D01*
X149795238Y-95085714D01*
X149938095Y-95085714D01*
X150033333Y-95133333D01*
X150080952Y-95228571D01*
X150080952Y-95752380D01*
X150985714Y-95752380D02*
X150985714Y-94752380D01*
X150985714Y-95704761D02*
X150890476Y-95752380D01*
X150700000Y-95752380D01*
X150604761Y-95704761D01*
X150557142Y-95657142D01*
X150509523Y-95561904D01*
X150509523Y-95276190D01*
X150557142Y-95180952D01*
X150604761Y-95133333D01*
X150700000Y-95085714D01*
X150890476Y-95085714D01*
X150985714Y-95133333D01*
X151890476Y-95752380D02*
X151890476Y-95228571D01*
X151842857Y-95133333D01*
X151747619Y-95085714D01*
X151557142Y-95085714D01*
X151461904Y-95133333D01*
X151890476Y-95704761D02*
X151795238Y-95752380D01*
X151557142Y-95752380D01*
X151461904Y-95704761D01*
X151414285Y-95609523D01*
X151414285Y-95514285D01*
X151461904Y-95419047D01*
X151557142Y-95371428D01*
X151795238Y-95371428D01*
X151890476Y-95323809D01*
X153080952Y-94847619D02*
X153128571Y-94800000D01*
X153223809Y-94752380D01*
X153461904Y-94752380D01*
X153557142Y-94800000D01*
X153604761Y-94847619D01*
X153652380Y-94942857D01*
X153652380Y-95038095D01*
X153604761Y-95180952D01*
X153033333Y-95752380D01*
X153652380Y-95752380D01*
X154080952Y-95752380D02*
X154080952Y-95085714D01*
X154080952Y-95180952D02*
X154128571Y-95133333D01*
X154223809Y-95085714D01*
X154366666Y-95085714D01*
X154461904Y-95133333D01*
X154509523Y-95228571D01*
X154509523Y-95752380D01*
X154509523Y-95228571D02*
X154557142Y-95133333D01*
X154652380Y-95085714D01*
X154795238Y-95085714D01*
X154890476Y-95133333D01*
X154938095Y-95228571D01*
X154938095Y-95752380D01*
X161995238Y-95161904D02*
X161614285Y-95161904D01*
X161576190Y-95542857D01*
X161614285Y-95504761D01*
X161690476Y-95466666D01*
X161880952Y-95466666D01*
X161957142Y-95504761D01*
X161995238Y-95542857D01*
X162033333Y-95619047D01*
X162033333Y-95809523D01*
X161995238Y-95885714D01*
X161957142Y-95923809D01*
X161880952Y-95961904D01*
X161690476Y-95961904D01*
X161614285Y-95923809D01*
X161576190Y-95885714D01*
X162528571Y-95161904D02*
X162604761Y-95161904D01*
X162680952Y-95200000D01*
X162719047Y-95238095D01*
X162757142Y-95314285D01*
X162795238Y-95466666D01*
X162795238Y-95657142D01*
X162757142Y-95809523D01*
X162719047Y-95885714D01*
X162680952Y-95923809D01*
X162604761Y-95961904D01*
X162528571Y-95961904D01*
X162452380Y-95923809D01*
X162414285Y-95885714D01*
X162376190Y-95809523D01*
X162338095Y-95657142D01*
X162338095Y-95466666D01*
X162376190Y-95314285D01*
X162414285Y-95238095D01*
X162452380Y-95200000D01*
X162528571Y-95161904D01*
X163290476Y-95161904D02*
X163442857Y-95161904D01*
X163519047Y-95200000D01*
X163595238Y-95276190D01*
X163633333Y-95428571D01*
X163633333Y-95695238D01*
X163595238Y-95847619D01*
X163519047Y-95923809D01*
X163442857Y-95961904D01*
X163290476Y-95961904D01*
X163214285Y-95923809D01*
X163138095Y-95847619D01*
X163100000Y-95695238D01*
X163100000Y-95428571D01*
X163138095Y-95276190D01*
X163214285Y-95200000D01*
X163290476Y-95161904D01*
X163976190Y-95961904D02*
X163976190Y-95161904D01*
X164319047Y-95961904D02*
X164319047Y-95542857D01*
X164280952Y-95466666D01*
X164204761Y-95428571D01*
X164090476Y-95428571D01*
X164014285Y-95466666D01*
X163976190Y-95504761D01*
X164700000Y-95961904D02*
X164700000Y-95428571D01*
X164700000Y-95504761D02*
X164738095Y-95466666D01*
X164814285Y-95428571D01*
X164928571Y-95428571D01*
X165004761Y-95466666D01*
X165042857Y-95542857D01*
X165042857Y-95961904D01*
X165042857Y-95542857D02*
X165080952Y-95466666D01*
X165157142Y-95428571D01*
X165271428Y-95428571D01*
X165347619Y-95466666D01*
X165385714Y-95542857D01*
X165385714Y-95961904D01*
X-16604761Y-13061904D02*
X-16985714Y-13061904D01*
X-17023809Y-13442857D01*
X-16985714Y-13404761D01*
X-16909523Y-13366666D01*
X-16719047Y-13366666D01*
X-16642857Y-13404761D01*
X-16604761Y-13442857D01*
X-16566666Y-13519047D01*
X-16566666Y-13709523D01*
X-16604761Y-13785714D01*
X-16642857Y-13823809D01*
X-16719047Y-13861904D01*
X-16909523Y-13861904D01*
X-16985714Y-13823809D01*
X-17023809Y-13785714D01*
X-16071428Y-13061904D02*
X-15995238Y-13061904D01*
X-15919047Y-13100000D01*
X-15880952Y-13138095D01*
X-15842857Y-13214285D01*
X-15804761Y-13366666D01*
X-15804761Y-13557142D01*
X-15842857Y-13709523D01*
X-15880952Y-13785714D01*
X-15919047Y-13823809D01*
X-15995238Y-13861904D01*
X-16071428Y-13861904D01*
X-16147619Y-13823809D01*
X-16185714Y-13785714D01*
X-16223809Y-13709523D01*
X-16261904Y-13557142D01*
X-16261904Y-13366666D01*
X-16223809Y-13214285D01*
X-16185714Y-13138095D01*
X-16147619Y-13100000D01*
X-16071428Y-13061904D01*
X-15309523Y-13061904D02*
X-15157142Y-13061904D01*
X-15080952Y-13100000D01*
X-15004761Y-13176190D01*
X-14966666Y-13328571D01*
X-14966666Y-13595238D01*
X-15004761Y-13747619D01*
X-15080952Y-13823809D01*
X-15157142Y-13861904D01*
X-15309523Y-13861904D01*
X-15385714Y-13823809D01*
X-15461904Y-13747619D01*
X-15500000Y-13595238D01*
X-15500000Y-13328571D01*
X-15461904Y-13176190D01*
X-15385714Y-13100000D01*
X-15309523Y-13061904D01*
X-14623809Y-13861904D02*
X-14623809Y-13061904D01*
X-14280952Y-13861904D02*
X-14280952Y-13442857D01*
X-14319047Y-13366666D01*
X-14395238Y-13328571D01*
X-14509523Y-13328571D01*
X-14585714Y-13366666D01*
X-14623809Y-13404761D01*
X-13900000Y-13861904D02*
X-13900000Y-13328571D01*
X-13900000Y-13404761D02*
X-13861904Y-13366666D01*
X-13785714Y-13328571D01*
X-13671428Y-13328571D01*
X-13595238Y-13366666D01*
X-13557142Y-13442857D01*
X-13557142Y-13861904D01*
X-13557142Y-13442857D02*
X-13519047Y-13366666D01*
X-13442857Y-13328571D01*
X-13328571Y-13328571D01*
X-13252380Y-13366666D01*
X-13214285Y-13442857D01*
X-13214285Y-13861904D01*
X115895238Y-95361904D02*
X115514285Y-95361904D01*
X115476190Y-95742857D01*
X115514285Y-95704761D01*
X115590476Y-95666666D01*
X115780952Y-95666666D01*
X115857142Y-95704761D01*
X115895238Y-95742857D01*
X115933333Y-95819047D01*
X115933333Y-96009523D01*
X115895238Y-96085714D01*
X115857142Y-96123809D01*
X115780952Y-96161904D01*
X115590476Y-96161904D01*
X115514285Y-96123809D01*
X115476190Y-96085714D01*
X116428571Y-95361904D02*
X116504761Y-95361904D01*
X116580952Y-95400000D01*
X116619047Y-95438095D01*
X116657142Y-95514285D01*
X116695238Y-95666666D01*
X116695238Y-95857142D01*
X116657142Y-96009523D01*
X116619047Y-96085714D01*
X116580952Y-96123809D01*
X116504761Y-96161904D01*
X116428571Y-96161904D01*
X116352380Y-96123809D01*
X116314285Y-96085714D01*
X116276190Y-96009523D01*
X116238095Y-95857142D01*
X116238095Y-95666666D01*
X116276190Y-95514285D01*
X116314285Y-95438095D01*
X116352380Y-95400000D01*
X116428571Y-95361904D01*
X117190476Y-95361904D02*
X117342857Y-95361904D01*
X117419047Y-95400000D01*
X117495238Y-95476190D01*
X117533333Y-95628571D01*
X117533333Y-95895238D01*
X117495238Y-96047619D01*
X117419047Y-96123809D01*
X117342857Y-96161904D01*
X117190476Y-96161904D01*
X117114285Y-96123809D01*
X117038095Y-96047619D01*
X117000000Y-95895238D01*
X117000000Y-95628571D01*
X117038095Y-95476190D01*
X117114285Y-95400000D01*
X117190476Y-95361904D01*
X117876190Y-96161904D02*
X117876190Y-95361904D01*
X118219047Y-96161904D02*
X118219047Y-95742857D01*
X118180952Y-95666666D01*
X118104761Y-95628571D01*
X117990476Y-95628571D01*
X117914285Y-95666666D01*
X117876190Y-95704761D01*
X118600000Y-96161904D02*
X118600000Y-95628571D01*
X118600000Y-95704761D02*
X118638095Y-95666666D01*
X118714285Y-95628571D01*
X118828571Y-95628571D01*
X118904761Y-95666666D01*
X118942857Y-95742857D01*
X118942857Y-96161904D01*
X118942857Y-95742857D02*
X118980952Y-95666666D01*
X119057142Y-95628571D01*
X119171428Y-95628571D01*
X119247619Y-95666666D01*
X119285714Y-95742857D01*
X119285714Y-96161904D01*
D11*
G04 #@! TO.C,*
X117260000Y-100150000D02*
X116760000Y-100400000D01*
X117260000Y-100650000D02*
X117260000Y-100150000D01*
X116760000Y-100400000D02*
X117260000Y-100650000D01*
G04 #@! TO.C,C1*
X119910000Y-102041422D02*
X119910000Y-102558578D01*
X118490000Y-102041422D02*
X118490000Y-102558578D01*
G04 #@! TO.C,C2*
X125662779Y-100910000D02*
X125337221Y-100910000D01*
X125662779Y-99890000D02*
X125337221Y-99890000D01*
G04 #@! TO.C,C3*
X132090000Y-101837221D02*
X132090000Y-102162779D01*
X133110000Y-101837221D02*
X133110000Y-102162779D01*
G04 #@! TO.C,C4*
X143158578Y-99690000D02*
X142641422Y-99690000D01*
X143158578Y-101110000D02*
X142641422Y-101110000D01*
G04 #@! TO.C,C5*
X151110000Y-102037221D02*
X151110000Y-102362779D01*
X150090000Y-102037221D02*
X150090000Y-102362779D01*
G04 #@! TO.C,C6*
X156558578Y-101110000D02*
X156041422Y-101110000D01*
X156558578Y-99690000D02*
X156041422Y-99690000D01*
G04 #@! TO.C,*
X164640000Y-100400000D02*
X164140000Y-100150000D01*
X164140000Y-100150000D02*
X164140000Y-100650000D01*
X164140000Y-100650000D02*
X164640000Y-100400000D01*
G04 #@! TO.C,L1*
X123110000Y-102003922D02*
X123110000Y-102521078D01*
X121690000Y-102003922D02*
X121690000Y-102521078D01*
G04 #@! TO.C,L2*
X129762779Y-100910000D02*
X129437221Y-100910000D01*
X129762779Y-99890000D02*
X129437221Y-99890000D01*
G04 #@! TO.C,L3*
X134990000Y-101837221D02*
X134990000Y-102162779D01*
X136010000Y-101837221D02*
X136010000Y-102162779D01*
G04 #@! TO.C,L4*
X138962779Y-100910000D02*
X138637221Y-100910000D01*
X138962779Y-99890000D02*
X138637221Y-99890000D01*
G04 #@! TO.C,L5*
X147262779Y-100910000D02*
X146937221Y-100910000D01*
X147262779Y-99890000D02*
X146937221Y-99890000D01*
G04 #@! TO.C,L7*
X160662779Y-99890000D02*
X160337221Y-99890000D01*
X160662779Y-100910000D02*
X160337221Y-100910000D01*
G04 #@! TO.C,*
D12*
G04 #@! TO.C,C1*
X119657142Y-99166666D02*
X119704761Y-99214285D01*
X119752380Y-99357142D01*
X119752380Y-99452380D01*
X119704761Y-99595238D01*
X119609523Y-99690476D01*
X119514285Y-99738095D01*
X119323809Y-99785714D01*
X119180952Y-99785714D01*
X118990476Y-99738095D01*
X118895238Y-99690476D01*
X118800000Y-99595238D01*
X118752380Y-99452380D01*
X118752380Y-99357142D01*
X118800000Y-99214285D01*
X118847619Y-99166666D01*
X119752380Y-98214285D02*
X119752380Y-98785714D01*
X119752380Y-98500000D02*
X118752380Y-98500000D01*
X118895238Y-98595238D01*
X118990476Y-98690476D01*
X119038095Y-98785714D01*
G04 #@! TO.C,C2*
X125233333Y-102757142D02*
X125185714Y-102804761D01*
X125042857Y-102852380D01*
X124947619Y-102852380D01*
X124804761Y-102804761D01*
X124709523Y-102709523D01*
X124661904Y-102614285D01*
X124614285Y-102423809D01*
X124614285Y-102280952D01*
X124661904Y-102090476D01*
X124709523Y-101995238D01*
X124804761Y-101900000D01*
X124947619Y-101852380D01*
X125042857Y-101852380D01*
X125185714Y-101900000D01*
X125233333Y-101947619D01*
X125614285Y-101947619D02*
X125661904Y-101900000D01*
X125757142Y-101852380D01*
X125995238Y-101852380D01*
X126090476Y-101900000D01*
X126138095Y-101947619D01*
X126185714Y-102042857D01*
X126185714Y-102138095D01*
X126138095Y-102280952D01*
X125566666Y-102852380D01*
X126185714Y-102852380D01*
G04 #@! TO.C,C3*
X133057142Y-98966666D02*
X133104761Y-99014285D01*
X133152380Y-99157142D01*
X133152380Y-99252380D01*
X133104761Y-99395238D01*
X133009523Y-99490476D01*
X132914285Y-99538095D01*
X132723809Y-99585714D01*
X132580952Y-99585714D01*
X132390476Y-99538095D01*
X132295238Y-99490476D01*
X132200000Y-99395238D01*
X132152380Y-99252380D01*
X132152380Y-99157142D01*
X132200000Y-99014285D01*
X132247619Y-98966666D01*
X132152380Y-98633333D02*
X132152380Y-98014285D01*
X132533333Y-98347619D01*
X132533333Y-98204761D01*
X132580952Y-98109523D01*
X132628571Y-98061904D01*
X132723809Y-98014285D01*
X132961904Y-98014285D01*
X133057142Y-98061904D01*
X133104761Y-98109523D01*
X133152380Y-98204761D01*
X133152380Y-98490476D01*
X133104761Y-98585714D01*
X133057142Y-98633333D01*
G04 #@! TO.C,C4*
X142833333Y-102757142D02*
X142785714Y-102804761D01*
X142642857Y-102852380D01*
X142547619Y-102852380D01*
X142404761Y-102804761D01*
X142309523Y-102709523D01*
X142261904Y-102614285D01*
X142214285Y-102423809D01*
X142214285Y-102280952D01*
X142261904Y-102090476D01*
X142309523Y-101995238D01*
X142404761Y-101900000D01*
X142547619Y-101852380D01*
X142642857Y-101852380D01*
X142785714Y-101900000D01*
X142833333Y-101947619D01*
X143690476Y-102185714D02*
X143690476Y-102852380D01*
X143452380Y-101804761D02*
X143214285Y-102519047D01*
X143833333Y-102519047D01*
G04 #@! TO.C,C5*
X150957142Y-98866666D02*
X151004761Y-98914285D01*
X151052380Y-99057142D01*
X151052380Y-99152380D01*
X151004761Y-99295238D01*
X150909523Y-99390476D01*
X150814285Y-99438095D01*
X150623809Y-99485714D01*
X150480952Y-99485714D01*
X150290476Y-99438095D01*
X150195238Y-99390476D01*
X150100000Y-99295238D01*
X150052380Y-99152380D01*
X150052380Y-99057142D01*
X150100000Y-98914285D01*
X150147619Y-98866666D01*
X150052380Y-97961904D02*
X150052380Y-98438095D01*
X150528571Y-98485714D01*
X150480952Y-98438095D01*
X150433333Y-98342857D01*
X150433333Y-98104761D01*
X150480952Y-98009523D01*
X150528571Y-97961904D01*
X150623809Y-97914285D01*
X150861904Y-97914285D01*
X150957142Y-97961904D01*
X151004761Y-98009523D01*
X151052380Y-98104761D01*
X151052380Y-98342857D01*
X151004761Y-98438095D01*
X150957142Y-98485714D01*
G04 #@! TO.C,C6*
X156133333Y-102757142D02*
X156085714Y-102804761D01*
X155942857Y-102852380D01*
X155847619Y-102852380D01*
X155704761Y-102804761D01*
X155609523Y-102709523D01*
X155561904Y-102614285D01*
X155514285Y-102423809D01*
X155514285Y-102280952D01*
X155561904Y-102090476D01*
X155609523Y-101995238D01*
X155704761Y-101900000D01*
X155847619Y-101852380D01*
X155942857Y-101852380D01*
X156085714Y-101900000D01*
X156133333Y-101947619D01*
X156990476Y-101852380D02*
X156800000Y-101852380D01*
X156704761Y-101900000D01*
X156657142Y-101947619D01*
X156561904Y-102090476D01*
X156514285Y-102280952D01*
X156514285Y-102661904D01*
X156561904Y-102757142D01*
X156609523Y-102804761D01*
X156704761Y-102852380D01*
X156895238Y-102852380D01*
X156990476Y-102804761D01*
X157038095Y-102757142D01*
X157085714Y-102661904D01*
X157085714Y-102423809D01*
X157038095Y-102328571D01*
X156990476Y-102280952D01*
X156895238Y-102233333D01*
X156704761Y-102233333D01*
X156609523Y-102280952D01*
X156561904Y-102328571D01*
X156514285Y-102423809D01*
G04 #@! TO.C,*
G04 #@! TO.C,L1*
X122952380Y-98966666D02*
X122952380Y-99442857D01*
X121952380Y-99442857D01*
X122952380Y-98109523D02*
X122952380Y-98680952D01*
X122952380Y-98395238D02*
X121952380Y-98395238D01*
X122095238Y-98490476D01*
X122190476Y-98585714D01*
X122238095Y-98680952D01*
G04 #@! TO.C,L2*
X129433333Y-102752380D02*
X128957142Y-102752380D01*
X128957142Y-101752380D01*
X129719047Y-101847619D02*
X129766666Y-101800000D01*
X129861904Y-101752380D01*
X130100000Y-101752380D01*
X130195238Y-101800000D01*
X130242857Y-101847619D01*
X130290476Y-101942857D01*
X130290476Y-102038095D01*
X130242857Y-102180952D01*
X129671428Y-102752380D01*
X130290476Y-102752380D01*
G04 #@! TO.C,L3*
X135952380Y-98866666D02*
X135952380Y-99342857D01*
X134952380Y-99342857D01*
X134952380Y-98628571D02*
X134952380Y-98009523D01*
X135333333Y-98342857D01*
X135333333Y-98200000D01*
X135380952Y-98104761D01*
X135428571Y-98057142D01*
X135523809Y-98009523D01*
X135761904Y-98009523D01*
X135857142Y-98057142D01*
X135904761Y-98104761D01*
X135952380Y-98200000D01*
X135952380Y-98485714D01*
X135904761Y-98580952D01*
X135857142Y-98628571D01*
G04 #@! TO.C,L4*
X138633333Y-102752380D02*
X138157142Y-102752380D01*
X138157142Y-101752380D01*
X139395238Y-102085714D02*
X139395238Y-102752380D01*
X139157142Y-101704761D02*
X138919047Y-102419047D01*
X139538095Y-102419047D01*
G04 #@! TO.C,L5*
X146933333Y-102752380D02*
X146457142Y-102752380D01*
X146457142Y-101752380D01*
X147742857Y-101752380D02*
X147266666Y-101752380D01*
X147219047Y-102228571D01*
X147266666Y-102180952D01*
X147361904Y-102133333D01*
X147600000Y-102133333D01*
X147695238Y-102180952D01*
X147742857Y-102228571D01*
X147790476Y-102323809D01*
X147790476Y-102561904D01*
X147742857Y-102657142D01*
X147695238Y-102704761D01*
X147600000Y-102752380D01*
X147361904Y-102752380D01*
X147266666Y-102704761D01*
X147219047Y-102657142D01*
G04 #@! TO.C,L7*
X160333333Y-102752380D02*
X159857142Y-102752380D01*
X159857142Y-101752380D01*
X160571428Y-101752380D02*
X161238095Y-101752380D01*
X160809523Y-102752380D01*
G04 #@! TO.C,L6*
X153552380Y-98766666D02*
X153552380Y-99242857D01*
X152552380Y-99242857D01*
X152552380Y-98004761D02*
X152552380Y-98195238D01*
X152600000Y-98290476D01*
X152647619Y-98338095D01*
X152790476Y-98433333D01*
X152980952Y-98480952D01*
X153361904Y-98480952D01*
X153457142Y-98433333D01*
X153504761Y-98385714D01*
X153552380Y-98290476D01*
X153552380Y-98100000D01*
X153504761Y-98004761D01*
X153457142Y-97957142D01*
X153361904Y-97909523D01*
X153123809Y-97909523D01*
X153028571Y-97957142D01*
X152980952Y-98004761D01*
X152933333Y-98100000D01*
X152933333Y-98290476D01*
X152980952Y-98385714D01*
X153028571Y-98433333D01*
X153123809Y-98480952D01*
G04 #@! TD*
M02*
