G04 #@! TF.GenerationSoftware,KiCad,Pcbnew,(5.0.2)-1*
G04 #@! TF.CreationDate,2020-07-18T19:28:28+02:00*
G04 #@! TF.ProjectId,PCB,5043422e-6b69-4636-9164-5f7063625858,rev?*
G04 #@! TF.SameCoordinates,Original*
G04 #@! TF.FileFunction,Copper,L2,Bot*
G04 #@! TF.FilePolarity,Positive*
%FSLAX46Y46*%
G04 Gerber Fmt 4.6, Leading zero omitted, Abs format (unit mm)*
G04 Created by KiCad (PCBNEW (5.0.2)-1) date 07/18/20 19:28:28*
%MOMM*%
%LPD*%
G01*
G04 APERTURE LIST*
G04 #@! TA.AperFunction,SMDPad,CuDef*
%ADD10R,4.200000X1.350000*%
G04 #@! TD*
G04 #@! TA.AperFunction,ViaPad*
%ADD11C,0.800000*%
G04 #@! TD*
G04 #@! TA.AperFunction,Conductor*
%ADD12C,0.254000*%
G04 #@! TD*
G04 APERTURE END LIST*
D10*
G04 #@! TO.P,,2*
G04 #@! TO.N,Earth*
X114500000Y-97575000D03*
X114500000Y-103225000D03*
G04 #@! TD*
G04 #@! TO.P,,2*
G04 #@! TO.N,Earth*
X166900000Y-97575000D03*
X166900000Y-103225000D03*
G04 #@! TD*
D11*
G04 #@! TO.N,Earth*
X137500000Y-96200000D03*
X141500000Y-96200000D03*
X149500000Y-96200000D03*
X145500000Y-96200000D03*
X165500000Y-96200000D03*
X157500000Y-96200000D03*
X161500000Y-96200000D03*
X153500000Y-96200000D03*
X149500000Y-94100000D03*
X113500000Y-96200000D03*
X141500000Y-94100000D03*
X153500000Y-94100000D03*
X137500000Y-94100000D03*
X133500000Y-94100000D03*
X117500000Y-94100000D03*
X129500000Y-94100000D03*
X157500000Y-94100000D03*
X165500000Y-94100000D03*
X125500000Y-94100000D03*
X145500000Y-94100000D03*
X121500000Y-94100000D03*
X113500000Y-94100000D03*
X133500000Y-96200000D03*
X117500000Y-96200000D03*
X125500000Y-96200000D03*
X161500000Y-94100000D03*
X129500000Y-96200000D03*
X121500000Y-96200000D03*
X135400000Y-95200000D03*
X115400000Y-95200000D03*
X127400000Y-95200000D03*
X131400000Y-95200000D03*
X123400000Y-95200000D03*
X119400000Y-95200000D03*
X139400000Y-95200000D03*
X151400000Y-95200000D03*
X147400000Y-95200000D03*
X167400000Y-95200000D03*
X155400000Y-95200000D03*
X143400000Y-95200000D03*
X163400000Y-95200000D03*
X159400000Y-95200000D03*
X139500000Y-105800000D03*
X143500000Y-105800000D03*
X151500000Y-105800000D03*
X147500000Y-105800000D03*
X167500000Y-105800000D03*
X159500000Y-105800000D03*
X163500000Y-105800000D03*
X155500000Y-105800000D03*
X115500000Y-105800000D03*
X135500000Y-105800000D03*
X119500000Y-105800000D03*
X127500000Y-105800000D03*
X131500000Y-105800000D03*
X123500000Y-105800000D03*
X137600000Y-104700000D03*
X141600000Y-104700000D03*
X149600000Y-104700000D03*
X145600000Y-104700000D03*
X165600000Y-104700000D03*
X157600000Y-104700000D03*
X161600000Y-104700000D03*
X153600000Y-104700000D03*
X113600000Y-104700000D03*
X133600000Y-104700000D03*
X117600000Y-104700000D03*
X125600000Y-104700000D03*
X129600000Y-104700000D03*
X121600000Y-104700000D03*
X121600000Y-106800000D03*
X133600000Y-106800000D03*
X125600000Y-106800000D03*
X129600000Y-106800000D03*
X145600000Y-106800000D03*
X137600000Y-106800000D03*
X141600000Y-106800000D03*
X149600000Y-106800000D03*
X161600000Y-106800000D03*
X165600000Y-106800000D03*
X153600000Y-106800000D03*
X157600000Y-106800000D03*
X113600000Y-106800000D03*
X117600000Y-106800000D03*
G04 #@! TD*
D12*
G04 #@! TO.N,Earth*
G36*
X168290000Y-96252560D02*
X164800000Y-96252560D01*
X164552235Y-96301843D01*
X164342191Y-96442191D01*
X164201843Y-96652235D01*
X164152560Y-96900000D01*
X164152560Y-98250000D01*
X164201843Y-98497765D01*
X164342191Y-98707809D01*
X164552235Y-98848157D01*
X164800000Y-98897440D01*
X168290000Y-98897440D01*
X168290001Y-101902560D01*
X164800000Y-101902560D01*
X164552235Y-101951843D01*
X164342191Y-102092191D01*
X164201843Y-102302235D01*
X164152560Y-102550000D01*
X164152560Y-103900000D01*
X164201843Y-104147765D01*
X164342191Y-104357809D01*
X164552235Y-104498157D01*
X164800000Y-104547440D01*
X168290001Y-104547440D01*
X168290001Y-107290000D01*
X113110000Y-107290000D01*
X113110000Y-104547440D01*
X116600000Y-104547440D01*
X116847765Y-104498157D01*
X117057809Y-104357809D01*
X117198157Y-104147765D01*
X117247440Y-103900000D01*
X117247440Y-102550000D01*
X117198157Y-102302235D01*
X117057809Y-102092191D01*
X116847765Y-101951843D01*
X116600000Y-101902560D01*
X113110000Y-101902560D01*
X113110000Y-98897440D01*
X116600000Y-98897440D01*
X116847765Y-98848157D01*
X117057809Y-98707809D01*
X117198157Y-98497765D01*
X117247440Y-98250000D01*
X117247440Y-96900000D01*
X117198157Y-96652235D01*
X117057809Y-96442191D01*
X116847765Y-96301843D01*
X116600000Y-96252560D01*
X113110000Y-96252560D01*
X113110000Y-93710000D01*
X168290000Y-93710000D01*
X168290000Y-96252560D01*
X168290000Y-96252560D01*
G37*
X168290000Y-96252560D02*
X164800000Y-96252560D01*
X164552235Y-96301843D01*
X164342191Y-96442191D01*
X164201843Y-96652235D01*
X164152560Y-96900000D01*
X164152560Y-98250000D01*
X164201843Y-98497765D01*
X164342191Y-98707809D01*
X164552235Y-98848157D01*
X164800000Y-98897440D01*
X168290000Y-98897440D01*
X168290001Y-101902560D01*
X164800000Y-101902560D01*
X164552235Y-101951843D01*
X164342191Y-102092191D01*
X164201843Y-102302235D01*
X164152560Y-102550000D01*
X164152560Y-103900000D01*
X164201843Y-104147765D01*
X164342191Y-104357809D01*
X164552235Y-104498157D01*
X164800000Y-104547440D01*
X168290001Y-104547440D01*
X168290001Y-107290000D01*
X113110000Y-107290000D01*
X113110000Y-104547440D01*
X116600000Y-104547440D01*
X116847765Y-104498157D01*
X117057809Y-104357809D01*
X117198157Y-104147765D01*
X117247440Y-103900000D01*
X117247440Y-102550000D01*
X117198157Y-102302235D01*
X117057809Y-102092191D01*
X116847765Y-101951843D01*
X116600000Y-101902560D01*
X113110000Y-101902560D01*
X113110000Y-98897440D01*
X116600000Y-98897440D01*
X116847765Y-98848157D01*
X117057809Y-98707809D01*
X117198157Y-98497765D01*
X117247440Y-98250000D01*
X117247440Y-96900000D01*
X117198157Y-96652235D01*
X117057809Y-96442191D01*
X116847765Y-96301843D01*
X116600000Y-96252560D01*
X113110000Y-96252560D01*
X113110000Y-93710000D01*
X168290000Y-93710000D01*
X168290000Y-96252560D01*
G04 #@! TD*
M02*
